<svg width="18" height="19" viewBox="0 0 18 19" fill="none" xmlns="http://www.w3.org/2000/svg">
<g clip-path="url(#clip0_5504_19415)">
<path d="M9 2C4.86 2 1.5 5.36 1.5 9.5C1.5 13.64 4.86 17 9 17C13.14 17 16.5 13.64 16.5 9.5C16.5 5.36 13.14 2 9 2ZM5.3025 14.21C5.625 13.535 7.59 12.875 9 12.875C10.41 12.875 12.3825 13.535 12.6975 14.21C11.6775 15.02 10.395 15.5 9 15.5C7.605 15.5 6.3225 15.02 5.3025 14.21ZM13.77 13.1225C12.6975 11.8175 10.095 11.375 9 11.375C7.905 11.375 5.3025 11.8175 4.23 13.1225C3.465 12.1175 3 10.865 3 9.5C3 6.1925 5.6925 3.5 9 3.5C12.3075 3.5 15 6.1925 15 9.5C15 10.865 14.535 12.1175 13.77 13.1225ZM9 5C7.545 5 6.375 6.17 6.375 7.625C6.375 9.08 7.545 10.25 9 10.25C10.455 10.25 11.625 9.08 11.625 7.625C11.625 6.17 10.455 5 9 5ZM9 8.75C8.3775 8.75 7.875 8.2475 7.875 7.625C7.875 7.0025 8.3775 6.5 9 6.5C9.6225 6.5 10.125 7.0025 10.125 7.625C10.125 8.2475 9.6225 8.75 9 8.75Z" fill="#B3B3B3"/>
</g>
<defs>
<clipPath id="clip0_5504_19415">
<rect width="18" height="18" fill="white" transform="translate(0 0.5)"/>
</clipPath>
</defs>
</svg>
