<svg width="20" height="21" viewBox="0 0 20 21" fill="none" xmlns="http://www.w3.org/2000/svg">
<g id="music_video" clip-path="url(#clip0_915_13885)">
<path id="Vector" d="M17.4999 3H2.49992C1.58325 3 0.833252 3.75 0.833252 4.66667V16.3333C0.833252 17.25 1.58325 18 2.49992 18H17.4999C18.4166 18 19.1666 17.25 19.1666 16.3333V4.66667C19.1666 3.75 18.4166 3 17.4999 3ZM17.4999 16.3333H2.49992V4.66667H17.4999V16.3333ZM6.66659 13C6.66659 11.6167 7.78325 10.5 9.16659 10.5C9.45825 10.5 9.74159 10.5583 9.99992 10.65V5.5H14.1666V7.16667H11.6666V13.025C11.6499 14.3917 10.5416 15.5 9.16659 15.5C7.78325 15.5 6.66659 14.3833 6.66659 13Z" fill="#B3B3B3"/>
</g>
<defs>
<clipPath id="clip0_915_13885">
<rect width="20" height="20" fill="white" transform="translate(0 0.5)"/>
</clipPath>
</defs>
</svg>
