<svg width="18" height="18" viewBox="0 0 18 18" fill="none" xmlns="http://www.w3.org/2000/svg">
<path d="M8.25 13.5V15.75C8.25 16.1625 7.9125 16.5 7.5 16.5C7.0875 16.5 6.75 16.1625 6.75 15.75V13.5H8.25Z" fill="#B3B3B3"/>
<path d="M11.25 13.5V15.75C11.25 16.1625 10.9125 16.5 10.5 16.5C10.0875 16.5 9.75 16.1625 9.75 15.75V13.5H11.25Z" fill="#B3B3B3"/>
<path d="M12.75 8.25V12C12.75 12.825 12.075 13.5 11.25 13.5H6.75C5.925 13.5 5.25 12.825 5.25 12V8.25C5.25 7.425 5.925 6.75 6.75 6.75H11.25C12.075 6.75 12.75 7.425 12.75 8.25Z" fill="#B3B3B3"/>
<path d="M3.75 8.25V11.25C3.75 11.6625 3.4125 12 3 12C2.5875 12 2.25 11.6625 2.25 11.25V8.25C2.25 7.8375 2.5875 7.5 3 7.5C3.4125 7.5 3.75 7.8375 3.75 8.25Z" fill="#B3B3B3"/>
<path d="M15.75 8.25V11.25C15.75 11.6625 15.4125 12 15 12C14.5875 12 14.25 11.6625 14.25 11.25V8.25C14.25 7.8375 14.5875 7.5 15 7.5C15.4125 7.5 15.75 7.8375 15.75 8.25Z" fill="#B3B3B3"/>
<path d="M7.19998 5.7H10.8C11.46 5.7 12 5.16 12 4.5C12 2.8425 10.6575 1.5 9 1.5C7.3425 1.5 6 2.8425 6 4.5C6 5.16 6.53998 5.7 7.19998 5.7Z" fill="#B3B3B3"/>
</svg>
