<svg width="18" height="18" viewBox="0 0 18 18" fill="none" xmlns="http://www.w3.org/2000/svg">
<path fillRule="evenodd" clipRule="evenodd" d="M14.325 14.37C14.7675 13.695 14.9326 13.35 15.2701 12.5925C12.7801 11.6475 12.3826 8.09999 14.8426 6.74249C14.0926 5.79749 13.0351 5.25 12.0376 5.25C11.3176 5.25 10.8225 5.43751 10.38 5.61001C10.005 5.75251 9.66755 5.88 9.24755 5.88C8.79755 5.88 8.40005 5.73751 7.98005 5.58751C7.52255 5.42251 7.04255 5.25 6.44255 5.25C5.32505 5.25 4.13255 5.9325 3.37505 7.1025C2.31005 8.7525 2.49755 11.8425 4.21505 14.4825C4.83005 15.4275 5.65505 16.485 6.72755 16.5C7.17755 16.5075 7.47005 16.3725 7.79255 16.23C8.16005 16.065 8.55755 15.885 9.25505 15.885C9.95255 15.8775 10.3425 16.065 10.71 16.23C11.025 16.3725 11.31 16.5075 11.7525 16.5C12.84 16.485 13.71 15.315 14.325 14.37Z" fill="#B3B3B3"/>
<path fillRule="evenodd" clipRule="evenodd" d="M11.8801 1.5C12.0001 2.325 11.6626 3.14251 11.2201 3.71251C10.7476 4.32751 9.92258 4.8075 9.12758 4.7775C8.98508 3.9825 9.35258 3.16499 9.80258 2.61749C10.3051 2.01749 11.1526 1.5525 11.8801 1.5Z" fill="#B3B3B3"/>
</svg>
