<svg width="16" height="19" viewBox="0 0 16 19" fill="none" xmlns="http://www.w3.org/2000/svg">
<path d="M12.7542 10.0715C12.7342 7.9067 14.5721 6.85353 14.6562 6.8045C13.6153 5.32482 12.0019 5.12265 11.4349 5.10653C10.0799 4.96749 8.7655 5.89708 8.07523 5.89708C7.37119 5.89708 6.30823 5.11996 5.16261 5.1428C3.68839 5.16496 2.30923 5.99715 1.55283 7.28944C-0.00818854 9.92439 1.15603 13.7965 2.65161 15.9264C3.39975 16.9695 4.27394 18.1342 5.41819 18.0932C6.53763 18.0482 6.95579 17.3974 8.3067 17.3974C9.64521 17.3974 10.0379 18.0932 11.2049 18.067C12.4063 18.0482 13.1627 17.0192 13.8846 15.9667C14.7492 14.7711 15.0964 13.5937 15.1102 13.5333C15.0819 13.5239 12.7769 12.6661 12.7542 10.0715Z" fill="white"/>
<path d="M10.5497 3.70543C11.1518 2.9713 11.5638 1.97253 11.4494 0.958984C10.578 0.996598 9.48814 1.54669 8.86057 2.2647C8.30532 2.89741 7.80932 3.93447 7.93746 4.90973C8.91637 4.98092 9.92146 4.42814 10.5497 3.70543Z" fill="white"/>
</svg>
