<svg width="22" height="23" viewBox="0 0 22 23" fill="none" xmlns="http://www.w3.org/2000/svg">
<path d="M18.4607 4.03944C17.9539 3.53238 17.3168 3.17515 16.6198 3.00715C15.9228 2.83914 15.193 2.86689 14.5108 3.08732C13.8286 3.30776 13.2205 3.71232 12.7536 4.2564C12.2867 4.80047 11.9791 5.46292 11.8648 6.17069L16.3295 10.6353C17.0372 10.521 17.6997 10.2134 18.2437 9.74653C18.7878 9.27964 19.1924 8.67156 19.4128 7.98934C19.6333 7.30713 19.661 6.57729 19.493 5.88031C19.325 5.18333 18.9678 4.54629 18.4607 4.03944ZM14.4375 11.6624L10.8363 8.05994C9.39664 9.69934 7.95702 11.3388 6.51745 12.9783L2.83933 17.1652C2.54396 17.5031 2.38802 17.9406 2.40307 18.3892C2.41812 18.8377 2.60303 19.2638 2.92038 19.5811C3.23774 19.8985 3.66381 20.0834 4.11236 20.0984C4.56091 20.1135 4.99842 19.9576 5.33633 19.6622L9.54383 15.9662L14.4388 11.6638L14.4375 11.6624ZM9.78995 6.12944C9.91472 5.01508 10.3516 3.95859 11.0502 3.08154C11.7489 2.20448 12.681 1.54251 13.7393 1.17179C14.7975 0.801068 15.939 0.736664 17.0322 0.98599C18.1255 1.23531 19.1261 1.78824 19.919 2.58113C20.7119 3.37402 21.2648 4.37467 21.5142 5.46792C21.7635 6.56117 21.6991 7.7026 21.3284 8.76087C20.9576 9.81913 20.2957 10.7512 19.4186 11.4499C18.5416 12.1486 17.4851 12.5854 16.3707 12.7102L10.9065 17.5131L6.69895 21.2104C5.96746 21.8521 5.01928 22.1914 4.04678 22.1596C3.07427 22.1278 2.15028 21.7273 1.46225 21.0393C0.774218 20.3512 0.373679 19.4272 0.341891 18.4547C0.310103 17.4822 0.649447 16.5341 1.29108 15.8026L4.97058 11.6157L9.78995 6.12944Z" fill="#B3B3B3"/>
</svg>
