<svg width="24" height="24" viewBox="0 0 24 24" fill="none" xmlns="http://www.w3.org/2000/svg">
<path d="M9.5 5.4375C9.5 4.23 10.48 3.25 11.6875 3.25H19.8125C21.02 3.25 22 4.23 22 5.4375V18.5625C22 19.1427 21.7695 19.6991 21.3593 20.1093C20.9491 20.5195 20.3927 20.75 19.8125 20.75H11.6875C11.1073 20.75 10.5509 20.5195 10.1407 20.1093C9.73047 19.6991 9.5 19.1427 9.5 18.5625V5.4375ZM11.6875 5.125C11.6046 5.125 11.5251 5.15792 11.4665 5.21653C11.4079 5.27513 11.375 5.35462 11.375 5.4375V18.5625C11.375 18.735 11.515 18.875 11.6875 18.875H19.8125C19.8954 18.875 19.9749 18.8421 20.0335 18.7835C20.0921 18.7249 20.125 18.6454 20.125 18.5625V5.4375C20.125 5.35462 20.0921 5.27513 20.0335 5.21653C19.9749 5.15792 19.8954 5.125 19.8125 5.125H11.6875ZM4.1875 5.125C4.10462 5.125 4.02513 5.15792 3.96653 5.21653C3.90792 5.27513 3.875 5.35462 3.875 5.4375V13.5625C3.875 13.735 4.015 13.875 4.1875 13.875H7V15.75H4.1875C3.60734 15.75 3.05094 15.5195 2.6407 15.1093C2.23047 14.6991 2 14.1427 2 13.5625V5.4375C2 4.23 2.98 3.25 4.1875 3.25H7V5.125H4.1875ZM7 20.75H4.5V18.875H7V20.75Z" fill="#FF3740"/>
<path d="M18.25 14.5C18.25 15.163 17.9866 15.7989 17.5178 16.2678C17.0489 16.7366 16.413 17 15.75 17C15.087 17 14.4511 16.7366 13.9822 16.2678C13.5134 15.7989 13.25 15.163 13.25 14.5C13.25 13.837 13.5134 13.2011 13.9822 12.7322C14.4511 12.2634 15.087 12 15.75 12C16.413 12 17.0489 12.2634 17.5178 12.7322C17.9866 13.2011 18.25 13.837 18.25 14.5ZM17 8.25C17 8.58152 16.8683 8.89946 16.6339 9.13388C16.3995 9.3683 16.0815 9.5 15.75 9.5C15.4185 9.5 15.1005 9.3683 14.8661 9.13388C14.6317 8.89946 14.5 8.58152 14.5 8.25C14.5 7.91848 14.6317 7.60054 14.8661 7.36612C15.1005 7.1317 15.4185 7 15.75 7C16.0815 7 16.3995 7.1317 16.6339 7.36612C16.8683 7.60054 17 7.91848 17 8.25Z" fill="#FF3740"/>
</svg>
