<svg width="20" height="20" viewBox="0 0 20 20" fill="none" xmlns="http://www.w3.org/2000/svg">
<g id="content_cut" clip-path="url(#clip0_915_13889)">
<path id="Vector" d="M8.03341 6.36666C8.22508 5.94999 8.33341 5.49166 8.33341 4.99999C8.33341 3.15832 6.84175 1.66666 5.00008 1.66666C3.15841 1.66666 1.66675 3.15832 1.66675 4.99999C1.66675 6.84166 3.15841 8.33332 5.00008 8.33332C5.49175 8.33332 5.95008 8.22499 6.36675 8.03332L8.33341 9.99999L6.36675 11.9667C5.95008 11.775 5.49175 11.6667 5.00008 11.6667C3.15841 11.6667 1.66675 13.1583 1.66675 15C1.66675 16.8417 3.15841 18.3333 5.00008 18.3333C6.84175 18.3333 8.33341 16.8417 8.33341 15C8.33341 14.5083 8.22508 14.05 8.03341 13.6333L10.0001 11.6667L15.8334 17.5H18.3334V16.6667L8.03341 6.36666ZM5.00008 6.66666C4.08341 6.66666 3.33341 5.92499 3.33341 4.99999C3.33341 4.07499 4.08341 3.33332 5.00008 3.33332C5.91675 3.33332 6.66675 4.07499 6.66675 4.99999C6.66675 5.92499 5.91675 6.66666 5.00008 6.66666ZM5.00008 16.6667C4.08341 16.6667 3.33341 15.925 3.33341 15C3.33341 14.075 4.08341 13.3333 5.00008 13.3333C5.91675 13.3333 6.66675 14.075 6.66675 15C6.66675 15.925 5.91675 16.6667 5.00008 16.6667ZM10.0001 10.4167C9.76675 10.4167 9.58341 10.2333 9.58341 9.99999C9.58341 9.76665 9.76675 9.58332 10.0001 9.58332C10.2334 9.58332 10.4167 9.76665 10.4167 9.99999C10.4167 10.2333 10.2334 10.4167 10.0001 10.4167ZM15.8334 2.49999L10.8334 7.49999L12.5001 9.16666L18.3334 3.33332V2.49999H15.8334Z" fill="#B3B3B3"/>
</g>
<defs>
<clipPath id="clip0_915_13889">
<rect width="20" height="20" fill="white"/>
</clipPath>
</defs>
</svg>
