<svg width="40" height="40" viewBox="0 0 40 40" fill="none" xmlns="http://www.w3.org/2000/svg">
<path id="Subtract" fill-rule="evenodd" clip-rule="evenodd" d="M1.7417 0C0.779785 0 0 0.779784 0 1.7417V37.8819C0 38.8438 0.779784 39.6236 1.7417 39.6236H19.8118C30.7536 39.6236 39.6236 30.7536 39.6236 19.8118C39.6236 8.87005 30.7536 0 19.8118 0H1.7417ZM11.9742 10.8858C11.1325 10.8858 10.4502 11.5681 10.4502 12.4098V27.2142C10.4502 28.0559 11.1325 28.7382 11.9742 28.7382C12.8158 28.7382 13.4982 28.0559 13.4982 27.2142V12.4098C13.4982 11.5681 12.8158 10.8858 11.9742 10.8858ZM14.369 16.5464C14.369 15.7047 15.0513 15.0224 15.893 15.0224C16.7347 15.0224 17.417 15.7047 17.417 16.5464V23.0778C17.417 23.9194 16.7347 24.6017 15.893 24.6017C15.0513 24.6017 14.369 23.9194 14.369 23.0778V16.5464ZM19.8118 12.4099C18.9701 12.4099 18.2878 13.0922 18.2878 13.9339V25.6903C18.2878 26.532 18.9701 27.2143 19.8118 27.2143C20.6535 27.2143 21.3358 26.532 21.3358 25.6903V13.9339C21.3358 13.0922 20.6535 12.4099 19.8118 12.4099ZM22.2066 16.5464C22.2066 15.7047 22.8889 15.0224 23.7306 15.0224C24.5723 15.0224 25.2546 15.7047 25.2546 16.5464V23.0778C25.2546 23.9194 24.5723 24.6017 23.7306 24.6017C22.8889 24.6017 22.2066 23.9194 22.2066 23.0778V16.5464ZM27.6494 11.1036C26.8078 11.1036 26.1255 11.7859 26.1255 12.6276V26.9966C26.1255 27.8383 26.8078 28.5206 27.6494 28.5206C28.4911 28.5206 29.1734 27.8383 29.1734 26.9966V12.6276C29.1734 11.7859 28.4911 11.1036 27.6494 11.1036Z" fill="url(#paint0_linear_898_3452)"/>
<defs>
<linearGradient id="paint0_linear_898_3452" x1="-0.653136" y1="-6.96679" x2="29.6089" y2="50.0738" gradientUnits="userSpaceOnUse">
<stop stop-color="#F6B012"/>
<stop offset="1" stop-color="#F16820"/>
</linearGradient>
</defs>
</svg>
