<svg width="22" height="19" viewBox="0 0 22 19" fill="none" xmlns="http://www.w3.org/2000/svg">
<path d="M10.3065 18.1118L15.3848 13.0334C15.724 12.6943 15.9165 12.2268 15.9165 11.7409V2.58344C15.9165 1.57511 15.0915 0.750109 14.0832 0.750109H5.83317C5.09984 0.750109 4.43984 1.19011 4.1465 1.85927L1.15817 8.83511C0.38817 10.6501 1.71734 12.6668 3.68817 12.6668H8.86734L7.9965 16.8651C7.90484 17.3234 8.04234 17.7909 8.37234 18.1209C8.91317 18.6526 9.77484 18.6526 10.3065 18.1118ZM19.5832 0.750109C18.5748 0.750109 17.7498 1.57511 17.7498 2.58344V9.91678C17.7498 10.9251 18.5748 11.7501 19.5832 11.7501C20.5915 11.7501 21.4165 10.9251 21.4165 9.91678V2.58344C21.4165 1.57511 20.5915 0.750109 19.5832 0.750109Z" fill="#B3B3B3"/>
</svg>
