<svg width="20" height="21" viewBox="0 0 20 21" fill="none" xmlns="http://www.w3.org/2000/svg">
<path d="M10 18.4492C14.4183 18.4492 18 14.8675 18 10.4492C18 6.03094 14.4183 2.44922 10 2.44922C5.58172 2.44922 2 6.03094 2 10.4492C2 14.8675 5.58172 18.4492 10 18.4492ZM10 3.44922C10.6568 3.44922 11.4068 4.03947 12.0218 5.35736C12.2393 5.82341 12.4283 6.359 12.5806 6.94922H7.41936C7.57172 6.359 7.76073 5.82341 7.97822 5.35736C8.59323 4.03947 9.34315 3.44922 10 3.44922ZM7.07203 4.93448C6.79564 5.52675 6.56498 6.20618 6.38931 6.94922H3.93648C4.77295 5.50321 6.11182 4.38419 7.71442 3.83085C7.47297 4.16144 7.25828 4.53538 7.07203 4.93448ZM6.19265 7.94922C6.06723 8.73754 6 9.57855 6 10.4492C6 11.3199 6.06723 12.1609 6.19265 12.9492H3.45963C3.16268 12.1728 3 11.33 3 10.4492C3 9.56842 3.16268 8.72562 3.45963 7.94922H6.19265ZM6.38931 13.9492C6.56498 14.6923 6.79564 15.3717 7.07203 15.964C7.25828 16.3631 7.47297 16.737 7.71442 17.0676C6.11182 16.5142 4.77295 15.3952 3.93648 13.9492H6.38931ZM7.41936 13.9492H12.5806C12.4283 14.5394 12.2393 15.075 12.0218 15.5411C11.4068 16.859 10.6568 17.4492 10 17.4492C9.34315 17.4492 8.59323 16.859 7.97822 15.5411C7.76073 15.075 7.57172 14.5394 7.41936 13.9492ZM12.7938 12.9492H7.20617C7.07345 12.1745 7 11.3325 7 10.4492C7 9.56591 7.07345 8.72394 7.20617 7.94922H12.7938C12.9266 8.72394 13 9.56591 13 10.4492C13 11.3325 12.9266 12.1745 12.7938 12.9492ZM13.6107 13.9492H16.0635C15.2271 15.3952 13.8882 16.5142 12.2856 17.0676C12.527 16.737 12.7417 16.3631 12.928 15.964C13.2044 15.3717 13.435 14.6923 13.6107 13.9492ZM16.5404 12.9492H13.8074C13.9328 12.1609 14 11.3199 14 10.4492C14 9.57855 13.9328 8.73754 13.8074 7.94922H16.5404C16.8373 8.72562 17 9.56842 17 10.4492C17 11.33 16.8373 12.1728 16.5404 12.9492ZM12.2856 3.83085C13.8882 4.38419 15.2271 5.50321 16.0635 6.94922H13.6107C13.435 6.20618 13.2044 5.52675 12.928 4.93448C12.7417 4.53538 12.527 4.16143 12.2856 3.83085Z" fill="#5E5E62"/>
</svg>
