<svg width="32" height="32" viewBox="0 0 32 32" fill="none" xmlns="http://www.w3.org/2000/svg">
<g id="maximize">
<path id="Vector" d="M10.8325 3.9248H6.90731C6.2133 3.9248 5.54771 4.2005 5.05697 4.69124C4.56622 5.18198 4.29053 5.84757 4.29053 6.54159V10.4668M27.8416 10.4668V6.54159C27.8416 5.84757 27.5659 5.18198 27.0751 4.69124C26.5844 4.2005 25.9188 3.9248 25.2248 3.9248H21.2996M21.2996 27.4759H25.2248C25.9188 27.4759 26.5844 27.2002 27.0751 26.7094C27.5659 26.2187 27.8416 25.5531 27.8416 24.8591V20.9339M4.29053 20.9339V24.8591C4.29053 25.5531 4.56622 26.2187 5.05697 26.7094C5.54771 27.2002 6.2133 27.4759 6.90731 27.4759H10.8325" stroke="white" stroke-width="2.94388" stroke-linecap="round" stroke-linejoin="round"/>
</g>
</svg>
