<svg width="20" height="20" viewBox="0 0 20 20" fill="none" xmlns="http://www.w3.org/2000/svg">
<g clip-path="url(#clip0_6076_20450)">
<path d="M15.8333 1.66602H4.16667C3.24167 1.66602 2.5 2.41602 2.5 3.33268V14.9993C2.5 15.916 3.24167 16.666 4.16667 16.666H7.5L10 19.166L12.5 16.666H15.8333C16.75 16.666 17.5 15.916 17.5 14.9993V3.33268C17.5 2.41602 16.75 1.66602 15.8333 1.66602ZM15.8333 14.9993H11.8083L11.3167 15.491L10 16.8077L8.675 15.4827L8.19167 14.9993H4.16667V3.33268H15.8333V14.9993ZM9.16667 12.4993H10.8333V14.166H9.16667V12.4993ZM10 5.83268C10.9167 5.83268 11.6667 6.58268 11.6667 7.49935C11.6667 9.16602 9.16667 8.95768 9.16667 11.666H10.8333C10.8333 9.79102 13.3333 9.58268 13.3333 7.49935C13.3333 5.65768 11.8417 4.16602 10 4.16602C8.15833 4.16602 6.66667 5.65768 6.66667 7.49935H8.33333C8.33333 6.58268 9.08333 5.83268 10 5.83268Z" fill="#C1C1C1"/>
</g>
<defs>
<clipPath id="clip0_6076_20450">
<rect width="20" height="20" fill="white"/>
</clipPath>
</defs>
</svg>
