<svg width="22" height="23" viewBox="0 0 22 23" fill="none" xmlns="http://www.w3.org/2000/svg">
<path d="M10.0833 16.082H11.9166V10.582H10.0833V16.082ZM10.9999 2.33203C5.93992 2.33203 1.83325 6.4387 1.83325 11.4987C1.83325 16.5587 5.93992 20.6654 10.9999 20.6654C16.0599 20.6654 20.1666 16.5587 20.1666 11.4987C20.1666 6.4387 16.0599 2.33203 10.9999 2.33203ZM10.9999 18.832C6.95742 18.832 3.66659 15.5412 3.66659 11.4987C3.66659 7.4562 6.95742 4.16536 10.9999 4.16536C15.0424 4.16536 18.3333 7.4562 18.3333 11.4987C18.3333 15.5412 15.0424 18.832 10.9999 18.832ZM10.0833 8.7487H11.9166V6.91536H10.0833V8.7487Z" fill="white"/>
<path d="M10.0835 6.91797H11.9168V8.7513H10.0835V6.91797ZM10.0835 10.5846H11.9168V16.0846H10.0835V10.5846Z" fill="white"/>
<path d="M10.9999 2.33203C5.93992 2.33203 1.83325 6.4387 1.83325 11.4987C1.83325 16.5587 5.93992 20.6654 10.9999 20.6654C16.0599 20.6654 20.1666 16.5587 20.1666 11.4987C20.1666 6.4387 16.0599 2.33203 10.9999 2.33203ZM10.9999 18.832C6.95742 18.832 3.66659 15.5412 3.66659 11.4987C3.66659 7.4562 6.95742 4.16536 10.9999 4.16536C15.0424 4.16536 18.3333 7.4562 18.3333 11.4987C18.3333 15.5412 15.0424 18.832 10.9999 18.832Z" fill="white"/>
</svg>
