<svg width="18" height="18" viewBox="0 0 18 18" fill="none" xmlns="http://www.w3.org/2000/svg">
<path d="M11.0832 0.778171C11.2099 0.70503 11.3536 0.666525 11.4998 0.666525C11.6461 0.666525 11.7898 0.70503 11.9165 0.778171L16.9165 3.66484C17.0432 3.73798 17.1484 3.84317 17.2215 3.96985C17.2947 4.09653 17.3332 4.24023 17.3332 4.3865V16.4998C17.3332 16.7209 17.2454 16.9328 17.0891 17.0891C16.9328 17.2454 16.7209 17.3332 16.4998 17.3332H11.4998C11.2788 17.3332 11.0669 17.2454 10.9106 17.0891C10.7543 16.9328 10.6665 16.7209 10.6665 16.4998V1.49984C10.6665 1.35356 10.705 1.20986 10.7782 1.08318C10.8513 0.956504 10.9565 0.851309 11.0832 0.778171ZM12.3332 2.94317V15.6665H15.6665V4.86734L12.3332 2.94317ZM1.49984 17.3332C1.27882 17.3332 1.06686 17.2454 0.910582 17.0891C0.754301 16.9328 0.666504 16.7209 0.666504 16.4998V1.49984C0.666504 1.27882 0.754301 1.06686 0.910582 0.910582C1.06686 0.754301 1.27882 0.666504 1.49984 0.666504C1.72085 0.666504 1.93281 0.754301 2.08909 0.910582C2.24537 1.06686 2.33317 1.27882 2.33317 1.49984V16.4998C2.33317 16.7209 2.24537 16.9328 2.08909 17.0891C1.93281 17.2454 1.72085 17.3332 1.49984 17.3332ZM6.49984 17.3332C6.27882 17.3332 6.06686 17.2454 5.91058 17.0891C5.7543 16.9328 5.6665 16.7209 5.6665 16.4998V1.49984C5.6665 1.27882 5.7543 1.06686 5.91058 0.910582C6.06686 0.754301 6.27882 0.666504 6.49984 0.666504C6.72085 0.666504 6.93281 0.754301 7.08909 0.910582C7.24537 1.06686 7.33317 1.27882 7.33317 1.49984V16.4998C7.33317 16.7209 7.24537 16.9328 7.08909 17.0891C6.93281 17.2454 6.72085 17.3332 6.49984 17.3332Z" fill="white"/>
</svg>
