<svg width="22" height="19" viewBox="0 0 22 19" fill="none" xmlns="http://www.w3.org/2000/svg">
<path d="M12.0267 0.888223L6.94841 5.96656C6.60925 6.30572 6.41675 6.77322 6.41675 7.25906V16.4166C6.41675 17.4249 7.24175 18.2499 8.25008 18.2499H16.5001C17.2334 18.2499 17.8934 17.8099 18.1867 17.1407L21.1751 10.1649C21.9451 8.34989 20.6159 6.33322 18.6451 6.33322H13.4659L14.3367 2.13489C14.4284 1.67656 14.2909 1.20906 13.9609 0.879057C13.4201 0.34739 12.5584 0.34739 12.0267 0.888223ZM2.75008 18.2499C3.75841 18.2499 4.58341 17.4249 4.58341 16.4166V9.08322C4.58341 8.07489 3.75841 7.24989 2.75008 7.24989C1.74175 7.24989 0.916748 8.07489 0.916748 9.08322V16.4166C0.916748 17.4249 1.74175 18.2499 2.75008 18.2499Z" fill="white"/>
</svg>
