<svg width="18" height="18" viewBox="0 0 18 18" fill="none" xmlns="http://www.w3.org/2000/svg">
<g id="vuesax/linear/music-square-search">
<g id="music-square-search">
<path id="Vector" d="M9.2625 15.75H6.4875C2.925 15.75 1.5 14.325 1.5 10.7625V6.48752C1.5 2.92502 2.925 1.5 6.4875 1.5H10.7625C14.325 1.5 15.75 2.92502 15.75 6.48752V9.26248" stroke="#B3B3B3" stroke-linecap="round" stroke-linejoin="round"/>
<g id="Group">
<path id="Vector_2" d="M5.03989 10.8151C5.6405 10.8151 6.12739 10.3282 6.12739 9.7276C6.12739 9.12699 5.6405 8.64014 5.03989 8.64014C4.43928 8.64014 3.95239 9.12699 3.95239 9.7276C3.95239 10.3282 4.43928 10.8151 5.03989 10.8151Z" stroke="#B3B3B3" stroke-linecap="round" stroke-linejoin="round"/>
<path id="Vector_3" d="M10.1098 9.00011V4.75513C10.1098 3.84763 9.53978 3.7276 8.96978 3.8851L6.80228 4.47759C6.41228 4.58259 6.13477 4.89761 6.13477 5.34761V6.10512V6.61511V9.72759" stroke="#B3B3B3" stroke-linecap="round" stroke-linejoin="round"/>
<path id="Vector_4" d="M9.02231 10.0876C9.62292 10.0876 10.1098 9.60072 10.1098 9.00011C10.1098 8.3995 9.62292 7.9126 9.02231 7.9126C8.4217 7.9126 7.93481 8.3995 7.93481 9.00011C7.93481 9.60072 8.4217 10.0876 9.02231 10.0876Z" stroke="#B3B3B3" stroke-linecap="round" stroke-linejoin="round"/>
<path id="Vector_5" d="M6.12744 6.62267L10.1099 5.53516" stroke="#B3B3B3" stroke-linecap="round" stroke-linejoin="round"/>
</g>
<g id="Group_2">
<path id="Vector_6" d="M13.4549 15.9602C14.7804 15.9602 15.8549 14.8856 15.8549 13.5602C15.8549 12.2347 14.7804 11.1602 13.4549 11.1602C12.1294 11.1602 11.0549 12.2347 11.0549 13.5602C11.0549 14.8856 12.1294 15.9602 13.4549 15.9602Z" stroke="#B3B3B3" stroke-linecap="round" stroke-linejoin="round"/>
<path id="Vector_7" d="M16.3049 16.4102L15.5549 15.6602" stroke="#B3B3B3" stroke-linecap="round" stroke-linejoin="round"/>
</g>
</g>
</g>
</svg>
