<svg width="18" height="18" viewBox="0 0 18 18" fill="none" xmlns="http://www.w3.org/2000/svg">
<path d="M5.97754 16.5C7.63439 16.5 8.97754 15.1569 8.97754 13.5C8.97754 11.8431 7.63439 10.5 5.97754 10.5C4.32068 10.5 2.97754 11.8431 2.97754 13.5C2.97754 15.1569 4.32068 16.5 5.97754 16.5Z" stroke="#B3B3B3" strokeWidth="1.25" strokeLinecap="round" strokeLinejoin="round"/>
<path d="M8.97754 13.5V3" stroke="#B3B3B3" strokeWidth="1.25" strokeLinecap="round" strokeLinejoin="round"/>
<path d="M10.9574 1.58238L14.2724 2.68488C15.0749 2.95488 15.7349 3.86238 15.7349 4.70988V5.58738C15.7349 6.73488 14.8499 7.37238 13.7624 7.01238L10.4474 5.90988C9.64491 5.63988 8.98491 4.73238 8.98491 3.88488V2.99988C8.97741 1.85988 9.86991 1.21488 10.9574 1.58238Z" stroke="#B3B3B3" strokeWidth="1.25" strokeLinecap="round" strokeLinejoin="round"/>
</svg>
