<svg width="16" height="15" viewBox="0 0 16 15" fill="none" xmlns="http://www.w3.org/2000/svg">
<path d="M11.75 7.5C11.75 6.025 10.9 4.75833 9.66667 4.14167V5.98333L11.7083 8.025C11.7333 7.85833 11.75 7.68333 11.75 7.5ZM13.8333 7.5C13.8333 8.28333 13.6667 9.01667 13.3833 9.7L14.6417 10.9583C15.1917 9.925 15.5 8.75 15.5 7.5C15.5 3.93333 13.0083 0.95 9.66667 0.191667V1.90833C12.075 2.625 13.8333 4.85833 13.8333 7.5ZM1.55833 0L0.5 1.05833L4.44167 5L0.5 5L0.5 10H3.83333L8 14.1667L8 8.55833L11.5417 12.1C10.9833 12.5333 10.3583 12.875 9.66667 13.0833V14.8C10.8167 14.5417 11.8583 14.0083 12.7417 13.2917L14.4417 15L15.5 13.9417L8 6.44167L1.55833 0ZM8 0.833333L6.25833 2.575L8 4.31667V0.833333Z" fill="#B3B3B3"/>
</svg>
