<svg width="20" height="21" viewBox="0 0 20 21" fill="none" xmlns="http://www.w3.org/2000/svg">
<g id="volume_off" clip-path="url(#clip0_1728_4766)">
<path id="Vector" d="M13.75 10.5195C13.75 9.04453 12.9 7.77786 11.6667 7.1612V9.00286L13.7083 11.0445C13.7333 10.8779 13.75 10.7029 13.75 10.5195ZM15.8333 10.5195C15.8333 11.3029 15.6667 12.0362 15.3833 12.7195L16.6417 13.9779C17.1917 12.9445 17.5 11.7695 17.5 10.5195C17.5 6.95286 15.0083 3.96953 11.6667 3.2112V4.92786C14.075 5.64453 15.8333 7.87786 15.8333 10.5195ZM3.55833 3.01953L2.5 4.07786L6.44167 8.01953H2.5L2.5 13.0195H5.83333L10 17.1862V11.5779L13.5417 15.1195C12.9833 15.5529 12.3583 15.8945 11.6667 16.1029V17.8195C12.8167 17.5612 13.8583 17.0279 14.7417 16.3112L16.4417 18.0195L17.5 16.9612L10 9.4612L3.55833 3.01953ZM10 3.85286L8.25833 5.59453L10 7.3362V3.85286Z" fill="#F16820"/>
</g>
<defs>
<clipPath id="clip0_1728_4766">
<rect width="20" height="20" fill="white" transform="translate(0 0.519531)"/>
</clipPath>
</defs>
</svg>
