<svg width="80" height="80" viewBox="0 0 80 80" fill="none" xmlns="http://www.w3.org/2000/svg">
<g clip-path="url(#clip0_4995_12184)">
<path d="M60 36.6673V43.334H73.3333V36.6673H60ZM53.3333 58.7007C56.5333 61.0673 60.7 64.2006 64 66.6673C65.3333 64.9007 66.6666 63.1006 68 61.334C64.7 58.8673 60.5333 55.734 57.3333 53.334C56 55.134 54.6666 56.934 53.3333 58.7007ZM68 18.6673C66.6666 16.9007 65.3333 15.1007 64 13.334C60.7 15.8007 56.5333 18.934 53.3333 21.334C54.6666 23.1007 56 24.9007 57.3333 26.6673C60.5333 24.2673 64.7 21.1673 68 18.6673ZM13.3333 30.0007C9.66663 30.0007 6.66663 33.0007 6.66663 36.6673V43.334C6.66663 47.0006 9.66663 50.0006 13.3333 50.0006H16.6666V63.334H23.3333V50.0006H26.6666L43.3333 60.0006V20.0007L26.6666 30.0007H13.3333ZM51.6666 40.0007C51.6666 35.5673 49.7333 31.5673 46.6666 28.834V51.134C49.7333 48.434 51.6666 44.434 51.6666 40.0007Z" fill="#C1C1C1"/>
</g>
<defs>
<clipPath id="clip0_4995_12184">
<rect width="80" height="80" fill="white"/>
</clipPath>
</defs>
</svg>
