<svg width="20" height="20" viewBox="0 0 20 20" fill="none" xmlns="http://www.w3.org/2000/svg">
<g clip-path="url(#clip0_6076_20428)">
<path d="M9.99967 18.334C10.9163 18.334 11.6663 17.584 11.6663 16.6673H8.33301C8.33301 17.584 9.08301 18.334 9.99967 18.334ZM14.9997 13.334V9.16732C14.9997 6.60898 13.6413 4.46732 11.2497 3.90065V2.08398H8.74967V3.90065C6.36634 4.46732 4.99967 6.60065 4.99967 9.16732V13.334L3.33301 15.0007V15.834H16.6663V15.0007L14.9997 13.334ZM13.333 14.1673H6.66634V9.16732C6.66634 7.10065 7.92467 5.41732 9.99967 5.41732C12.0747 5.41732 13.333 7.10065 13.333 9.16732V14.1673Z" fill="#C1C1C1"/>
</g>
<defs>
<clipPath id="clip0_6076_20428">
<rect width="20" height="20" fill="white"/>
</clipPath>
</defs>
</svg>
