<svg width="60" height="60" viewBox="0 0 60 60" fill="none" xmlns="http://www.w3.org/2000/svg">
<rect width="59.2727" height="59.2727" rx="29.6364" fill="white"/>
<g clip-path="url(#clip0_4055_15161)">
<path d="M21.6365 37.9694C21.6365 38.5217 22.0842 38.9694 22.6365 38.9694H25.9698C26.5221 38.9694 26.9698 38.5217 26.9698 37.9694V21.3027C26.9698 20.7504 26.5221 20.3027 25.9698 20.3027H22.6365C22.0842 20.3027 21.6365 20.7504 21.6365 21.3027V37.9694ZM33.3031 20.3027C32.7509 20.3027 32.3031 20.7504 32.3031 21.3027V37.9694C32.3031 38.5217 32.7509 38.9694 33.3031 38.9694H36.6365C37.1888 38.9694 37.6365 38.5217 37.6365 37.9694V21.3027C37.6365 20.7504 37.1888 20.3027 36.6365 20.3027H33.3031Z" fill="#323232"/>
</g>
<defs>
<clipPath id="clip0_4055_15161">
<rect width="32" height="32" fill="white" transform="translate(13.6365 13.6367)"/>
</clipPath>
</defs>
</svg>
