<svg width="77" height="77" viewBox="0 0 77 77" fill="none" xmlns="http://www.w3.org/2000/svg">
<g filter="url(#filter0_d_443_129288)">
<rect x="8.34937" y="5.0166" width="59.6282" height="59.6282" rx="29.8141" fill="#FCFCFC"/>
<g clip-path="url(#clip0_443_129288)">
<path d="M32.3252 44.0548L32.3087 44.0662L32.2927 44.0785C32.2486 44.1124 32.2136 44.1209 32.1877 44.1225C32.1581 44.1244 32.122 44.1179 32.0841 44.0978C32.0066 44.0567 31.9521 43.9774 31.9521 43.8742V25.787C31.9521 25.6838 32.0066 25.6045 32.0841 25.5634C32.122 25.5433 32.1581 25.5368 32.1877 25.5386C32.2136 25.5402 32.2486 25.5488 32.2927 25.5827L32.3094 25.5955L32.3268 25.6074L45.4947 34.6013L45.4947 34.6014L45.5016 34.606C45.5868 34.6628 45.6169 34.7376 45.6169 34.8057C45.6169 34.8739 45.5868 34.9487 45.5016 35.0055L45.5016 35.0054L45.4931 35.0112L32.3252 44.0548Z" fill="#171719" stroke="#171719" stroke-width="1.49071"/>
</g>
</g>
<defs>
<filter id="filter0_d_443_129288" x="0.150482" y="0.0972717" width="76.0259" height="76.0262" filterUnits="userSpaceOnUse" color-interpolation-filters="sRGB">
<feFlood flood-opacity="0" result="BackgroundImageFix"/>
<feColorMatrix in="SourceAlpha" type="matrix" values="0 0 0 0 0 0 0 0 0 0 0 0 0 0 0 0 0 0 127 0" result="hardAlpha"/>
<feOffset dy="3.27955"/>
<feGaussianBlur stdDeviation="4.09944"/>
<feComposite in2="hardAlpha" operator="out"/>
<feColorMatrix type="matrix" values="0 0 0 0 0 0 0 0 0 0 0 0 0 0 0 0 0 0 0.1 0"/>
<feBlend mode="normal" in2="BackgroundImageFix" result="effect1_dropShadow_443_129288"/>
<feBlend mode="normal" in="SourceGraphic" in2="effect1_dropShadow_443_129288" result="shape"/>
</filter>
<clipPath id="clip0_443_129288">
<rect width="23.8513" height="23.8513" fill="white" transform="translate(26.2378 22.9053)"/>
</clipPath>
</defs>
</svg>
