<svg width="24" height="25" viewBox="0 0 24 25" fill="none" xmlns="http://www.w3.org/2000/svg">
<g clip-path="url(#clip0_0_5583)">
<path d="M21.9998 6.0708H17.8198C17.9298 5.7608 17.9998 5.4208 17.9998 5.0708C17.9998 3.4108 16.6598 2.0708 14.9998 2.0708C13.9498 2.0708 13.0398 2.6108 12.4998 3.4208L11.9998 4.0908L11.4998 3.4108C10.9598 2.6108 10.0498 2.0708 8.99977 2.0708C7.33977 2.0708 5.99977 3.4108 5.99977 5.0708C5.99977 5.4208 6.06977 5.7608 6.17977 6.0708H2.00977V21.0708H21.9998V6.0708ZM14.9998 4.0708C15.5498 4.0708 15.9998 4.5208 15.9998 5.0708C15.9998 5.6208 15.5498 6.0708 14.9998 6.0708C14.4498 6.0708 13.9998 5.6208 13.9998 5.0708C13.9998 4.5208 14.4498 4.0708 14.9998 4.0708ZM8.99977 4.0708C9.54977 4.0708 9.99977 4.5208 9.99977 5.0708C9.99977 5.6208 9.54977 6.0708 8.99977 6.0708C8.44977 6.0708 7.99977 5.6208 7.99977 5.0708C7.99977 4.5208 8.44977 4.0708 8.99977 4.0708ZM19.9998 19.0708H3.99977V17.0708H19.9998V19.0708ZM19.9998 14.0708H3.99977V8.0708H9.07977L6.99977 10.9008L8.61977 12.0708L11.9998 7.4708L15.3798 12.0708L16.9998 10.9008L14.9198 8.0708H19.9998V14.0708Z" fill="#FCFCFC"/>
</g>
<defs>
<clipPath id="clip0_0_5583">
<rect width="24" height="24" fill="white" transform="translate(0 0.0708008)"/>
</clipPath>
</defs>
</svg>
