<svg width="24" height="24" viewBox="0 0 24 24" fill="none" xmlns="http://www.w3.org/2000/svg">
<path d="M13.5944 10.6328H11.1247V4.88252L9.79033 5.02996V3.45969C10.0656 3.42037 10.2966 3.37614 10.4833 3.32699C10.6701 3.27784 10.8667 3.20166 11.0731 3.09845C11.2795 2.99524 11.4564 2.85271 11.6039 2.67087C11.7513 2.48902 11.8717 2.2654 11.9651 2H13.5944V10.6328Z" fill="#FF3740"/>
<path d="M7.22687 2.45628H5.68608C3.65032 2.45628 2 4.10659 2 6.14236V14.9712C2 17.007 3.65031 18.6573 5.68608 18.6573H8.52039V16.8142H5.68608C4.6682 16.8142 3.84304 15.9891 3.84304 14.9712V6.14236C3.84304 5.12448 4.6682 4.29932 5.68608 4.29932H7.22687V2.45628Z" fill="#FF3740"/>
<path d="M16.7732 4.29932H18.3139C19.3318 4.29932 20.157 5.12448 20.157 6.14236V14.9712C20.157 15.9891 19.3318 16.8142 18.3139 16.8142H13.7999L15.5802 15.034C15.814 14.6751 15.7688 14.1845 15.4477 13.8634C15.1263 13.542 14.6348 13.4971 14.2758 13.7319L10.9235 17.0842C10.5637 17.444 10.5637 18.0275 10.9235 18.3874L14.2429 21.7068C14.6041 21.9687 15.1162 21.9333 15.4465 21.6029C15.7685 21.281 15.8103 20.7864 15.5698 20.4272L13.7999 18.6573H18.3139C20.3497 18.6573 22 17.007 22 14.9712V6.14236C22 4.1066 20.3497 2.45628 18.3139 2.45628H16.7732V4.29932Z" fill="#FF3740"/>
</svg>
