<svg width="24" height="24" viewBox="0 0 24 24" fill="none" xmlns="http://www.w3.org/2000/svg">
<path d="M13.9132 10.3594H10.9496V3.45902L9.3484 3.63595V1.75163C9.67867 1.70445 9.95586 1.65137 10.18 1.59239C10.4041 1.53341 10.64 1.442 10.8877 1.31814C11.1354 1.19429 11.3477 1.02326 11.5247 0.805041C11.7016 0.586825 11.8461 0.318478 11.9581 0H13.9132V10.3594Z" fill="#FF3740"/>
<path d="M6.27224 0.547534H4.4233C1.98038 0.547534 0 2.52791 0 4.97083V15.5654C0 18.0084 1.98038 19.9887 4.4233 19.9887H7.82446V17.7771H4.4233C3.20184 17.7771 2.21165 16.7869 2.21165 15.5654V4.97083C2.21165 3.74937 3.20184 2.75918 4.4233 2.75918H6.27224V0.547534Z" fill="#FF3740"/>
<path d="M17.7279 2.75918H19.5767C20.7982 2.75918 21.7883 3.74938 21.7883 4.97084V15.5654C21.7883 16.7869 20.7982 17.7771 19.5767 17.7771H14.1599L16.2962 15.6408C16.5768 15.2102 16.5225 14.6213 16.1373 14.2361C15.7515 13.8503 15.1617 13.7965 14.731 14.0782L10.7082 18.101C10.2764 18.5328 10.2764 19.233 10.7082 19.6649L14.6915 23.6482C15.1249 23.9625 15.7395 23.9199 16.1358 23.5235C16.5222 23.1372 16.5724 22.5437 16.2837 22.1126L14.1599 19.9887H19.5767C22.0196 19.9887 24 18.0084 24 15.5654V4.97084C24 2.52792 22.0196 0.547534 19.5767 0.547534H17.7279V2.75918Z" fill="#FF3740"/>
</svg>
