<svg width="23" height="23" viewBox="0 0 23 23" fill="none" xmlns="http://www.w3.org/2000/svg">
<path d="M7.6154 2.42285C10.483 2.42285 12.8077 4.74752 12.8077 7.61515C12.8077 8.7991 12.4114 9.8905 11.7443 10.7639L15.028 14.0487C15.2984 14.319 15.2984 14.7574 15.028 15.0278C14.7784 15.2773 14.3857 15.2965 14.1142 15.0853L14.0489 15.0278L10.7642 11.7441C9.89074 12.4112 8.79934 12.8075 7.6154 12.8075C4.74777 12.8075 2.4231 10.4828 2.4231 7.61515C2.4231 4.74752 4.74777 2.42285 7.6154 2.42285ZM7.6154 3.80747C5.51247 3.80747 3.80771 5.51223 3.80771 7.61515C3.80771 9.71808 5.51247 11.4228 7.6154 11.4228C9.71833 11.4228 11.4231 9.71808 11.4231 7.61515C11.4231 5.51223 9.71833 3.80747 7.6154 3.80747Z" fill="white"/>
</svg>
