<svg width="24" height="24" viewBox="0 0 24 24" fill="none" xmlns="http://www.w3.org/2000/svg">
<path d="M19.7265 1.38345C19.6235 1.27292 19.4993 1.18427 19.3613 1.12278C19.2233 1.06129 19.0743 1.02823 18.9233 1.02557C18.7722 1.0229 18.6222 1.05069 18.4821 1.10727C18.342 1.16385 18.2148 1.24807 18.1079 1.3549C18.0011 1.46172 17.9169 1.58897 17.8603 1.72906C17.8037 1.86914 17.7759 2.01918 17.7786 2.17024C17.7813 2.32129 17.8143 2.47026 17.8758 2.60826C17.9373 2.74626 18.026 2.87046 18.1365 2.97345L19.6635 4.50045H16.74C15.9185 4.50046 15.1069 4.68042 14.3624 5.02767C13.6179 5.37493 12.9585 5.88105 12.4305 6.51045L3.171 17.5445C2.85419 17.9221 2.45849 18.2258 2.01172 18.4342C1.56495 18.6425 1.07796 18.7505 0.585 18.7505H0V21.0005H0.5865C1.40802 21.0004 2.21957 20.8205 2.96409 20.4732C3.70861 20.126 4.36804 19.6199 4.896 18.9905L14.1555 7.95645C14.4723 7.57877 14.868 7.27508 15.3148 7.06672C15.7615 6.85837 16.2485 6.75042 16.7415 6.75045H19.662L18.1365 8.27745C17.9378 8.49072 17.8296 8.77278 17.8347 9.06424C17.8399 9.35569 17.9579 9.63377 18.1641 9.83989C18.3702 10.046 18.6483 10.1641 18.9397 10.1692C19.2312 10.1744 19.5132 10.0662 19.7265 9.86745L23.97 5.62545L19.725 1.38345H19.7265ZM0.5865 5.25045H0V3.00045H0.5865C2.25 3.00045 3.8265 3.73545 4.896 5.01045L7.335 7.91595L5.8665 9.66645L3.1725 6.45645C2.85553 6.07858 2.45958 5.77477 2.01254 5.56641C1.5655 5.35804 1.07822 5.2502 0.585 5.25045H0.5865Z" fill="#FF3740"/>
<path d="M11.25 16.085L12.72 14.3345L14.1555 16.0445C14.4723 16.4221 14.868 16.7258 15.3148 16.9342C15.7615 17.1425 16.2485 17.2505 16.7415 17.2505H19.662L18.1365 15.7235C18.026 15.6205 17.9373 15.4963 17.8758 15.3583C17.8143 15.2203 17.7813 15.0713 17.7786 14.9202C17.7759 14.7692 17.8037 14.6191 17.8603 14.4791C17.9169 14.339 18.0011 14.2117 18.1079 14.1049C18.2148 13.9981 18.342 13.9138 18.4821 13.8573C18.6222 13.8007 18.7722 13.7729 18.9233 13.7756C19.0743 13.7782 19.2233 13.8113 19.3613 13.8728C19.4993 13.9343 19.6235 14.0229 19.7265 14.1335L23.97 18.3755L19.7265 22.6175C19.6235 22.728 19.4993 22.8166 19.3613 22.8781C19.2233 22.9396 19.0743 22.9727 18.9233 22.9753C18.7722 22.978 18.6222 22.9502 18.4821 22.8936C18.342 22.8371 18.2148 22.7528 18.1079 22.646C18.0011 22.5392 17.9169 22.4119 17.8603 22.2719C17.8037 22.1318 17.7759 21.9817 17.7786 21.8307C17.7813 21.6796 17.8143 21.5306 17.8758 21.3926C17.9373 21.2546 18.026 21.1304 18.1365 21.0275L19.6635 19.5005H16.74C15.9185 19.5004 15.1069 19.3205 14.3624 18.9732C13.6179 18.626 12.9585 18.1199 12.4305 17.4905L11.25 16.0835V16.085Z" fill="#FF3740"/>
</svg>
