<svg width="40" height="51" viewBox="0 0 40 51" fill="none" xmlns="http://www.w3.org/2000/svg">
<g id="Group">
<g id="Group_2">
<path id="Vector" d="M35 30.5C35 38.775 28.275 45.5 20 45.5C11.725 45.5 5 38.775 5 30.5C5 22.225 11.725 15.5 20 15.5V25.5L32.5 13L20 0.5V10.5C8.95 10.5 0 19.45 0 30.5C0 41.55 8.95 50.5 20 50.5C31.05 50.5 40 41.55 40 30.5H35Z" fill="white"/>
<path id="Vector_2" d="M17.15 37.8498V27.1748H16.925L12.5 28.7498V30.4748L15.025 29.6998V37.8498H17.15Z" fill="white"/>
<path id="Vector_3" d="M20.625 31.5995V33.4495C20.625 38.1995 23.9 37.9995 24.225 37.9995C24.575 37.9995 27.825 38.2245 27.825 33.4495V31.5995C27.825 26.8495 24.55 27.0495 24.225 27.0495C23.875 27.0495 20.625 26.8245 20.625 31.5995ZM25.725 31.2995V33.7245C25.725 35.6495 25.2 36.2995 24.25 36.2995C23.3 36.2995 22.75 35.6495 22.75 33.7245V31.2995C22.75 29.4245 23.3 28.7745 24.225 28.7745C25.175 28.7495 25.725 29.4245 25.725 31.2995Z" fill="white"/>
</g>
</g>
</svg>
