<svg width="41" height="51" viewBox="0 0 41 51" fill="none" xmlns="http://www.w3.org/2000/svg">
<g id="Group">
<g id="Group_2">
<path id="Vector" d="M20.9746 10.5V0.5L8.47461 13L20.9746 25.5V15.5C29.2496 15.5 35.9746 22.225 35.9746 30.5C35.9746 38.775 29.2496 45.5 20.9746 45.5C12.6996 45.5 5.97461 38.775 5.97461 30.5H0.974609C0.974609 41.55 9.92461 50.5 20.9746 50.5C32.0246 50.5 40.9746 41.55 40.9746 30.5C40.9746 19.45 32.0246 10.5 20.9746 10.5Z" fill="white"/>
<g id="Group_3">
<path id="Vector_2" d="M18.2242 38.0002H16.0992V29.8502L13.5742 30.6252V28.9002L17.9992 27.3252H18.2242V38.0002Z" fill="white"/>
<path id="Vector_3" d="M28.9242 33.6002C28.9242 34.4002 28.8492 35.1002 28.6742 35.6502C28.4992 36.2002 28.2492 36.7002 27.9492 37.0752C27.6492 37.4502 27.2492 37.7252 26.8242 37.9002C26.3992 38.0752 25.8992 38.1502 25.3492 38.1502C24.7992 38.1502 24.3242 38.0752 23.8742 37.9002C23.4242 37.7252 23.0492 37.4502 22.7242 37.0752C22.3992 36.7002 22.1492 36.2252 21.9742 35.6502C21.7992 35.0752 21.6992 34.4002 21.6992 33.6002V31.7502C21.6992 30.9502 21.7742 30.2502 21.9492 29.7002C22.1242 29.1502 22.3742 28.6502 22.6742 28.2752C22.9742 27.9002 23.3742 27.6252 23.7992 27.4502C24.2242 27.2752 24.7242 27.2002 25.2742 27.2002C25.8242 27.2002 26.2992 27.2752 26.7492 27.4502C27.1992 27.6252 27.5742 27.9002 27.8992 28.2752C28.2242 28.6502 28.4742 29.1252 28.6492 29.7002C28.8242 30.2752 28.9242 30.9502 28.9242 31.7502V33.6002ZM26.7992 31.4502C26.7992 30.9752 26.7742 30.5752 26.6992 30.2502C26.6242 29.9252 26.5242 29.6752 26.3992 29.4752C26.2742 29.2752 26.1242 29.1252 25.9242 29.0502C25.7242 28.9752 25.5242 28.9252 25.2992 28.9252C25.0742 28.9252 24.8492 28.9752 24.6742 29.0502C24.4992 29.1252 24.3242 29.2752 24.1992 29.4752C24.0742 29.6752 23.9742 29.9252 23.8992 30.2502C23.8242 30.5752 23.7992 30.9752 23.7992 31.4502V33.8752C23.7992 34.3502 23.8242 34.7502 23.8992 35.0752C23.9742 35.4002 24.0742 35.6752 24.1992 35.8752C24.3242 36.0752 24.4742 36.2252 24.6742 36.3002C24.8742 36.3752 25.0742 36.4252 25.2992 36.4252C25.5242 36.4252 25.7492 36.3752 25.9242 36.3002C26.0992 36.2252 26.2742 36.0752 26.3992 35.8752C26.5242 35.6752 26.6242 35.4002 26.6742 35.0752C26.7242 34.7502 26.7742 34.3502 26.7742 33.8752V31.4502H26.7992Z" fill="white"/>
</g>
</g>
</g>
</svg>
